<svg width="346" height="346" viewBox="0 0 346 346" fill="none" xmlns="http://www.w3.org/2000/svg">
<path d="M288 0C312.664 2.67873e-06 333.731 15.3958 342.118 37.1006L273.247 37L232.268 105.48L192.776 37.2773L133.911 37.2471L230.562 199.214L298.045 85.9941L346 85.7373V102.19L259.174 247.592L287.909 295.384L346 198.068V288C346 320.033 320.033 346 288 346H58C28.6298 346 4.35894 324.169 0.527344 295.85L91.7227 296L132.732 227.52L172.193 295.691L231.059 295.723L134.406 133.755L66.9551 246.975L9.1123 247.283L49.0693 180.406H0V167.274L19.8379 134.063H76.75L105.795 85.3779L77.0596 37.5859L19.4658 134.063H0V58C3.47946e-06 25.9675 25.9675 6.9258e-07 58 0H288Z" fill="white"/>
</svg>
