<svg width="228" height="114" viewBox="0 0 228 114" fill="none" xmlns="http://www.w3.org/2000/svg">
<path d="M67.3148 42.7332H42.2502L67.4651 0.268372L80.0457 21.3076L67.3148 42.7332Z" fill="#120F24"/>
<path d="M134.887 113.891L109.114 113.869L91.8319 83.867L73.8841 114.009L0 113.891L30.1312 63.1391H55.2065L37.7096 92.5725L63.0318 92.4437L92.5725 42.6044L134.887 113.891Z" fill="#120F24"/>
<path d="M135.413 30.1419L118.131 0.139535L92.3469 0.118078L134.672 71.4045L164.213 21.5759L189.535 21.4364L147.199 92.7121L159.79 113.741L227.245 0.118078L153.361 0L135.413 30.1419Z" fill="#120F24"/>
<path d="M42.4004 42.7332L30.2814 63.139H5.2168L17.3358 42.7332H42.4004Z" fill="#FFCD00"/>
</svg>
